<svg width="24" height="24" viewBox="0 0 24 24" fill="none" xmlns="http://www.w3.org/2000/svg">
<mask id="mask0_113_1174" style="mask-type:alpha" maskUnits="userSpaceOnUse" x="0" y="0" width="24" height="24">
<rect width="24" height="24" fill="#D9D9D9"/>
</mask>
<g mask="url(#mask0_113_1174)">
<path d="M17 22C15.6167 22 14.4375 21.5125 13.4625 20.5375C12.4875 19.5625 12 18.3833 12 17C12 15.6167 12.4875 14.4375 13.4625 13.4625C14.4375 12.4875 15.6167 12 17 12C18.3833 12 19.5625 12.4875 20.5375 13.4625C21.5125 14.4375 22 15.6167 22 17C22 18.3833 21.5125 19.5625 20.5375 20.5375C19.5625 21.5125 18.3833 22 17 22ZM18.675 19.375L19.375 18.675L17.5 16.8V14H16.5V17.2L18.675 19.375ZM5 21C4.45 21 3.97917 20.8042 3.5875 20.4125C3.19583 20.0208 3 19.55 3 19V5C3 4.45 3.19583 3.97917 3.5875 3.5875C3.97917 3.19583 4.45 3 5 3H9.175C9.35833 2.41667 9.71667 1.9375 10.25 1.5625C10.7833 1.1875 11.3667 1 12 1C12.6667 1 13.2625 1.1875 13.7875 1.5625C14.3125 1.9375 14.6667 2.41667 14.85 3H19C19.55 3 20.0208 3.19583 20.4125 3.5875C20.8042 3.97917 21 4.45 21 5V11.25C20.7 11.0333 20.3833 10.85 20.05 10.7C19.7167 10.55 19.3667 10.4167 19 10.3V5H17V8H7V5H5V19H10.3C10.4167 19.3667 10.55 19.7167 10.7 20.05C10.85 20.3833 11.0333 20.7 11.25 21H5ZM12 5C12.2833 5 12.5208 4.90417 12.7125 4.7125C12.9042 4.52083 13 4.28333 13 4C13 3.71667 12.9042 3.47917 12.7125 3.2875C12.5208 3.09583 12.2833 3 12 3C11.7167 3 11.4792 3.09583 11.2875 3.2875C11.0958 3.47917 11 3.71667 11 4C11 4.28333 11.0958 4.52083 11.2875 4.7125C11.4792 4.90417 11.7167 5 12 5Z" fill="#1E1E1E"/>
</g>
</svg>
